<svg xmlns="http://www.w3.org/2000/svg" width="173" height="55" viewBox="0 0 173 55"><g><g><g><g><g><path fill="#ed6b1f" d="M23.707 21.35a12.187 12.187 0 0 1-9.132 3.744C7.722 25.094 2 20.938 2 12.55 2 4.16 7.722.006 14.59.006a11.257 11.257 0 0 1 8.53 3.512l-3.707 3.876a7.18 7.18 0 0 0-4.752-1.876c-3.946 0-6.83 2.884-6.83 7.016 0 4.52 3.1 6.924 6.728 6.924a7.125 7.125 0 0 0 5.195-1.97z"></path></g><g><path fill="#ed6b1f" d="M31.562 12.55c0-3.558 2.225-7.016 6.443-6.977 3.938 0 6.434 3.364 6.434 6.977 0 3.613-2.155 6.977-6.434 6.977-4.28 0-6.443-3.372-6.443-6.977zM37.958.2c-7.551 0-12.257 5.512-12.257 12.35S30.306 24.9 38.005 24.9c7.698 0 12.35-5.528 12.35-12.35C50.355 5.774 45.509.2 37.958.2z"></path></g><g><path fill="#ed6b1f" d="M70.156 24.373V11.681c0-3.1-1.628-5.954-4.853-5.954-3.225 0-5.047 2.806-5.047 5.954v12.692h-5.862V.634h5.427l.435 2.884C61.504 1.114 64.248.246 66.504.246c2.838 0 5.676 1.155 6.978 4.42a8.582 8.582 0 0 1 7.97-4.327c6.729 0 10.079 4.14 10.079 11.25v12.784H85.67V11.588c0-3.1-1.303-5.768-4.474-5.768-3.17 0-5.17 2.713-5.17 5.861v12.692z"></path></g><g><path fill="#ed6b1f" d="M102.897.68l.427 2.737c1.829-2.93 4.278-3.365 6.682-3.365a8.962 8.962 0 0 1 6.101 2.28l-2.636 5.093a5.877 5.877 0 0 0-4.232-1.55c-3.1 0-5.915 1.636-5.915 6.008v12.49h-5.862V.68z"></path></g><g><path fill="#ed6b1f" d="M129.869 5.34c9.225 0 9.225 14.374 0 14.374-3.877 0-6.978-2.69-6.978-7.21s3.156-7.165 6.978-7.164zm7.032-1.341c-1.342-2.38-4.373-3.877-7.544-3.877C122.427.075 117 4.355 117 12.527c0 8.31 5.195 12.637 12.211 12.59 2.644-.046 6.342-1.395 7.69-4.179l.31 3.435h5.528V.68h-5.62z"></path></g><g><path fill="#ed6b1f" d="M162.788.68h7.016v.194l-7.791 11.482 8.272 11.878v.14h-7.024l-5.14-7.932-5.14 7.931h-7.017v-.14l8.265-11.877L146.476.874V.68h7.016l4.652 8.024z"></path></g></g><g class="change-to-white"><g><path d="M7.797 30.47h.273l1.92 5.742 1.95-5.742h.515l-2.216 6.296h-.515l-.998-2.941-.78-2.49-.78 2.474-1.03 2.957H5.62l-2.2-6.296h.506l1.982 5.742z"></path><path fill="none" stroke="#000" stroke-miterlimit="20" stroke-width=".3" d="M7.797 30.47v0h.273v0l1.92 5.742v0l1.95-5.742v0h.515v0l-2.216 6.296v0h-.515v0l-.998-2.941v0l-.78-2.49v0l-.78 2.474v0l-1.03 2.957v0H5.62v0l-2.2-6.296v0h.506v0l1.982 5.742v0z"></path></g><g><path d="M12.689 34.355a1.771 1.771 0 0 1 1.802-1.708 1.63 1.63 0 0 1 1.779 1.708zm-.468.18a2.169 2.169 0 0 0 2.27 2.278 2.442 2.442 0 0 0 1.873-.85l-.312-.25a2.099 2.099 0 0 1-1.56.67 1.74 1.74 0 0 1-1.819-1.646h3.995a2.067 2.067 0 0 0-2.177-2.488 2.231 2.231 0 0 0-2.27 2.286z"></path><path fill="none" stroke="#000" stroke-miterlimit="20" stroke-width=".3" d="M12.689 34.355a1.771 1.771 0 0 1 1.802-1.708 1.63 1.63 0 0 1 1.779 1.708zm-.468.18a2.169 2.169 0 0 0 2.27 2.278 2.442 2.442 0 0 0 1.873-.85l-.312-.25a2.099 2.099 0 0 1-1.56.67 1.74 1.74 0 0 1-1.819-1.646h3.995a2.067 2.067 0 0 0-2.177-2.488 2.231 2.231 0 0 0-2.27 2.286z"></path></g><g><path d="M18.244 34.527a1.771 1.771 0 0 1 1.795-1.857 1.865 1.865 0 0 1 0 3.721 1.771 1.771 0 0 1-1.81-1.865zm-.46-4.018v6.241h.429v-.975a2.106 2.106 0 0 0 1.857 1.046 2.286 2.286 0 0 0 0-4.572 1.974 1.974 0 0 0-1.842 1.037V30.47z"></path><path fill="none" stroke="#000" stroke-miterlimit="20" stroke-width=".3" d="M18.244 34.527a1.771 1.771 0 0 1 1.795-1.857 1.865 1.865 0 0 1 0 3.721 1.771 1.771 0 0 1-1.81-1.865zm-.46-4.018v6.241h.429v-.975a2.106 2.106 0 0 0 1.857 1.046 2.286 2.286 0 0 0 0-4.572 1.974 1.974 0 0 0-1.842 1.037V30.47z"></path></g><g><path d="M26.28 32.303v4.447h-.437v-4.447zm.148-1.428a.359.359 0 0 1-.71 0 .359.359 0 0 1 .71 0z"></path><path fill="none" stroke="#000" stroke-miterlimit="20" stroke-width=".3" d="M26.28 32.303v4.447h-.437v-4.447zm.148-1.428a.359.359 0 0 1-.71 0 .359.359 0 0 1 .71 0z"></path></g><g><path d="M27.965 32.319v.78c.327-.55.922-.882 1.56-.874a1.85 1.85 0 0 1 1.998 1.959v2.559h-.414v-2.544a1.412 1.412 0 0 0-1.56-1.56 1.56 1.56 0 0 0-1.56 1.615v2.465h-.437v-4.4z"></path><path fill="none" stroke="#000" stroke-miterlimit="20" stroke-width=".3" d="M27.965 32.319v.78c.327-.55.922-.882 1.56-.874a1.85 1.85 0 0 1 1.998 1.959v2.559h-.414v0-2.544a1.412 1.412 0 0 0-1.56-1.56 1.56 1.56 0 0 0-1.56 1.615v2.465h-.437v0-4.4 0z"></path></g><g><path d="M33.122 32.319v.78c.328-.548.922-.88 1.56-.874a1.857 1.857 0 0 1 2.006 1.958v2.56h-.445v-2.544a1.412 1.412 0 0 0-1.56-1.56 1.56 1.56 0 0 0-1.56 1.615v2.465h-.445v-4.4z"></path><path fill="none" stroke="#000" stroke-miterlimit="20" stroke-width=".3" d="M33.122 32.319v.78c.328-.548.922-.88 1.56-.874a1.857 1.857 0 0 1 2.006 1.958v2.56h-.445v0-2.544a1.412 1.412 0 0 0-1.56-1.56 1.56 1.56 0 0 0-1.56 1.615v2.465h-.445v0-4.4 0z"></path></g><g><path d="M40.846 36.224a1.826 1.826 0 0 1-2.77-1.682 1.826 1.826 0 1 1 3.644 0 1.826 1.826 0 0 1-.874 1.682zm-.944.573a2.255 2.255 0 1 0 0-4.51 2.255 2.255 0 0 0 0 4.51z"></path><path fill="none" stroke="#000" stroke-miterlimit="20" stroke-width=".3" d="M40.846 36.224a1.826 1.826 0 0 1-2.77-1.682 1.826 1.826 0 1 1 3.644 0 1.826 1.826 0 0 1-.874 1.682zm-.944.573a2.255 2.255 0 1 0 0-4.51 2.255 2.255 0 0 0 0 4.51z"></path></g><g><path d="M42.656 32.319h.484l1.615 3.9 1.615-3.9h.484l-1.857 4.431h-.484z"></path><path fill="none" stroke="#000" stroke-miterlimit="20" stroke-width=".3" d="M42.656 32.319v0h.484v0l1.615 3.9v0l1.615-3.9v0h.484v0l-1.857 4.431v0h-.484v0z"></path></g><g><path d="M47.782 34.535a1.771 1.771 0 0 1 1.818-1.849 1.857 1.857 0 0 1 0 3.706 1.779 1.779 0 0 1-1.818-1.857zm3.628-2.216v.968a1.997 1.997 0 0 0-1.81-1.022 2.278 2.278 0 1 0 0 4.556 2.06 2.06 0 0 0 1.802-1.014v.943h.445V32.32z"></path><path fill="none" stroke="#000" stroke-miterlimit="20" stroke-width=".3" d="M47.782 34.535a1.771 1.771 0 0 1 1.818-1.849 1.857 1.857 0 0 1 0 3.706 1.779 1.779 0 0 1-1.818-1.857zm3.628-2.216v.968a1.997 1.997 0 0 0-1.81-1.022 2.278 2.278 0 1 0 0 4.556 2.06 2.06 0 0 0 1.802-1.014v.943h.445V32.32z"></path></g><g><path d="M53.86 30.977v1.342h1.513v.366H53.86v2.7c0 .6.125 1.022.819 1.022a1.56 1.56 0 0 0 .679-.18l.156.36c-.257.14-.543.217-.835.226-.944 0-1.248-.554-1.248-1.428v-2.7h-.944v-.366h.944v-1.295z"></path><path fill="none" stroke="#000" stroke-miterlimit="20" stroke-width=".3" d="M53.86 30.977v1.342h1.513v.366H53.86v2.7c0 .6.125 1.022.819 1.022a1.56 1.56 0 0 0 .679-.18l.156.36c-.257.14-.543.217-.835.226-.944 0-1.248-.554-1.248-1.428v-2.7 0h-.944v0-.366 0h.944v0-1.295 0z"></path></g><g><path d="M56.825 32.303v4.447h-.445v-4.447zm.14-1.428a.359.359 0 0 1-.71 0 .359.359 0 0 1 .71 0z"></path><path fill="none" stroke="#000" stroke-miterlimit="20" stroke-width=".3" d="M56.825 32.303v4.447h-.445v-4.447zm.14-1.428a.359.359 0 0 1-.71 0 .359.359 0 0 1 .71 0z"></path></g><g><path d="M61.17 36.224a1.826 1.826 0 0 1-2.77-1.682 1.826 1.826 0 1 1 3.644 0 1.826 1.826 0 0 1-.874 1.682zm-2.113.381a2.255 2.255 0 0 0 3.416-2.063 2.255 2.255 0 1 0-4.502 0c-.049.836.369 1.63 1.086 2.063z"></path><path fill="none" stroke="#000" stroke-miterlimit="20" stroke-width=".3" d="M61.17 36.224a1.826 1.826 0 0 1-2.77-1.682 1.826 1.826 0 1 1 3.644 0 1.826 1.826 0 0 1-.874 1.682zm-2.113.381a2.255 2.255 0 0 0 3.416-2.063 2.255 2.255 0 1 0-4.502 0c-.049.836.369 1.63 1.086 2.063z"></path></g><g><path d="M63.916 32.319v.78c.327-.55.922-.882 1.56-.874a1.85 1.85 0 0 1 1.998 1.959v2.559h-.437v-2.544a1.412 1.412 0 0 0-1.56-1.56 1.56 1.56 0 0 0-1.56 1.614v2.466h-.43v-4.4z"></path><path fill="none" stroke="#000" stroke-miterlimit="20" stroke-width=".3" d="M63.916 32.319v.78c.327-.55.922-.882 1.56-.874a1.85 1.85 0 0 1 1.998 1.959v2.559h-.437v0-2.544a1.412 1.412 0 0 0-1.56-1.56 1.56 1.56 0 0 0-1.56 1.614v2.466h-.43v0-4.4 0z"></path></g><g><path d="M75.354 35.112c0 1.045-1.014 1.295-1.732 1.295-1.272 0-1.864-.546-1.864-1.326 0-.648.631-1.342 1.872-1.342h1.716zm.343-3.121c0-1.295-1.014-1.56-2.02-1.56-1.452 0-2.232.702-2.232 1.67a1.56 1.56 0 0 0 1.108 1.435 1.709 1.709 0 0 0-1.264 1.56c0 1.077.78 1.748 2.34 1.748a1.974 1.974 0 0 0 1.85-.874.944.944 0 0 0 1.045.78v-.374c-.624.008-.78-.593-.78-1.264v-1.373h.577v-.39h-2.668c-.75 0-1.787-.297-1.787-1.256-.007-.71.57-1.264 1.771-1.264.828 0 1.608.171 1.608 1.154z"></path><path fill="none" stroke="#000" stroke-miterlimit="20" stroke-width=".3" d="M75.354 35.112c0 1.045-1.014 1.295-1.732 1.295-1.272 0-1.864-.546-1.864-1.326 0-.648.631-1.342 1.872-1.342h1.716zm.343-3.121c0-1.295-1.014-1.56-2.02-1.56-1.452 0-2.232.702-2.232 1.67a1.56 1.56 0 0 0 1.108 1.435 1.709 1.709 0 0 0-1.264 1.56c0 1.077.78 1.748 2.34 1.748a1.974 1.974 0 0 0 1.85-.874.944.944 0 0 0 1.045.78v-.374c-.624.008-.78-.593-.78-1.264v-1.373h.577v-.39h-2.668c-.75 0-1.787-.297-1.787-1.256-.007-.71.57-1.264 1.771-1.264.828 0 1.608.171 1.608 1.154z"></path></g><g><path d="M82.204 30.938a2.684 2.684 0 1 1 0 5.36h-1.646v-5.376zm3.191 2.598a3.02 3.02 0 0 0-3.19-3.027h-2.13v6.241h2.13a3.02 3.02 0 0 0 3.19-3.214z"></path><path fill="none" stroke="#000" stroke-miterlimit="20" stroke-width=".3" d="M82.204 30.938a2.684 2.684 0 1 1 0 5.36h-1.646v-5.376zm3.191 2.598a3.02 3.02 0 0 0-3.19-3.027h-2.13v6.241h2.13a3.02 3.02 0 0 0 3.19-3.214z"></path></g><g><path d="M86.846 32.303v4.447h-.444v-4.447zm.14-1.428a.359.359 0 0 1-.71 0 .359.359 0 0 1 .71 0z"></path><path fill="none" stroke="#000" stroke-miterlimit="20" stroke-width=".3" d="M86.846 32.303v4.447h-.444v-4.447zm.14-1.428a.359.359 0 0 1-.71 0 .359.359 0 0 1 .71 0z"></path></g><g><path d="M88.329 34.402a1.66 1.66 0 1 1 3.308 0 1.7 1.7 0 0 1-1.662 1.7 1.623 1.623 0 0 1-1.646-1.7zm2.902-1.78a2.27 2.27 0 0 0-1.256-.405 2.161 2.161 0 0 0 0 4.315c.827 0 1.677.382 1.677 1.326 0 .944-.795 1.334-1.677 1.334s-1.662-.429-1.662-1.334h-.437c0 1.124.92 1.771 2.099 1.771 1.178 0 2.106-.577 2.106-1.771a1.63 1.63 0 0 0-1.209-1.56 2.184 2.184 0 0 0 .648-3.41l.429-.499-.289-.25z"></path><path fill="none" stroke="#000" stroke-miterlimit="20" stroke-width=".3" d="M88.329 34.402a1.66 1.66 0 1 1 3.308 0 1.7 1.7 0 0 1-1.662 1.7 1.623 1.623 0 0 1-1.646-1.7zm2.902-1.78a2.27 2.27 0 0 0-1.256-.405 2.161 2.161 0 0 0 0 4.315c.827 0 1.677.382 1.677 1.326 0 .944-.795 1.334-1.677 1.334s-1.662-.429-1.662-1.334h-.437c0 1.124.92 1.771 2.099 1.771 1.178 0 2.106-.577 2.106-1.771a1.63 1.63 0 0 0-1.209-1.56 2.184 2.184 0 0 0 .648-3.41l.429-.499-.289-.25z"></path></g><g><path d="M93.408 32.303v4.447h-.437v-4.447zm.148-1.428a.359.359 0 0 1-.71 0 .359.359 0 0 1 .71 0z"></path><path fill="none" stroke="#000" stroke-miterlimit="20" stroke-width=".3" d="M93.408 32.303v4.447h-.437v-4.447zm.148-1.428a.359.359 0 0 1-.71 0 .359.359 0 0 1 .71 0z"></path></g><g><path d="M95.678 30.977v1.342h1.514v.366h-1.514v2.7c0 .6.125 1.022.78 1.022a1.56 1.56 0 0 0 .679-.18l.156.36c-.257.14-.543.217-.835.226-.944 0-1.248-.554-1.248-1.428v-2.7h-.905v-.366h.944v-1.295z"></path><path fill="none" stroke="#000" stroke-miterlimit="20" stroke-width=".3" d="M95.678 30.977v1.342h1.514v.366h-1.514v2.7c0 .6.125 1.022.78 1.022a1.56 1.56 0 0 0 .679-.18l.156.36c-.257.14-.543.217-.835.226-.944 0-1.248-.554-1.248-1.428v-2.7 0h-.905v0-.366 0h.944v0-1.295 0z"></path></g><g><path d="M98.401 34.535a1.771 1.771 0 0 1 1.81-1.85 1.857 1.857 0 1 1 0 3.706 1.779 1.779 0 0 1-1.81-1.856zm3.628-2.216v.967a2.02 2.02 0 0 0-1.818-1.022 2.278 2.278 0 1 0 0 4.556 2.083 2.083 0 0 0 1.818-1.014v.944h.437V32.32z"></path><path fill="none" stroke="#000" stroke-miterlimit="20" stroke-width=".3" d="M98.401 34.535a1.771 1.771 0 0 1 1.81-1.85 1.857 1.857 0 1 1 0 3.706 1.779 1.779 0 0 1-1.81-1.856zm3.628-2.216v.967a2.02 2.02 0 0 0-1.818-1.022 2.278 2.278 0 1 0 0 4.556 2.083 2.083 0 0 0 1.818-1.014v.944h.437V32.32z"></path></g><g><path d="M104.096 30.47v6.24h-.437v-6.24z"></path><path fill="none" stroke="#000" stroke-miterlimit="20" stroke-width=".3" d="M104.096 30.47v6.24h-.437v0-6.24 0z"></path></g><g><path d="M108.809 30.977v1.342h1.505v.366h-1.505v2.7c0 .6.125 1.022.78 1.022.24-.009.473-.07.686-.18l.149.36c-.257.14-.543.218-.835.226-.936 0-1.248-.554-1.248-1.428v-2.7h-.936v-.366h.936v-1.295z"></path><path fill="none" stroke="#000" stroke-miterlimit="20" stroke-width=".3" d="M108.809 30.977v1.342h1.505v.366h-1.505v2.7c0 .6.125 1.022.78 1.022.24-.009.473-.07.686-.18l.149.36c-.257.14-.543.218-.835.226-.936 0-1.248-.554-1.248-1.428v-2.7 0h-.936v0-.366 0h.936v0-1.295 0z"></path></g><g><path d="M111.742 32.319v.78a1.56 1.56 0 0 1 1.475-.835c.335-.007.666.082.952.258l-.203.358a1.443 1.443 0 0 0-.78-.202 1.474 1.474 0 0 0-1.467 1.482v2.582h-.437v-4.423z"></path><path fill="none" stroke="#000" stroke-miterlimit="20" stroke-width=".3" d="M111.742 32.319v.78a1.56 1.56 0 0 1 1.475-.835c.335-.007.666.082.952.258l-.203.358a1.443 1.443 0 0 0-.78-.202 1.474 1.474 0 0 0-1.467 1.482v2.582h-.437v0-4.423 0z"></path></g><g><path d="M115.042 34.535a1.771 1.771 0 0 1 1.81-1.848 1.857 1.857 0 1 1 0 3.705 1.779 1.779 0 0 1-1.81-1.857zm3.629-2.215v.967a2.013 2.013 0 0 0-1.818-1.022 2.278 2.278 0 0 0 0 4.556 2.083 2.083 0 0 0 1.818-1.014v.943h.436V32.32z"></path><path fill="none" stroke="#000" stroke-miterlimit="20" stroke-width=".3" d="M115.042 34.535a1.771 1.771 0 0 1 1.81-1.848 1.857 1.857 0 1 1 0 3.705 1.779 1.779 0 0 1-1.81-1.857zm3.629-2.215v.967a2.013 2.013 0 0 0-1.818-1.022 2.278 2.278 0 0 0 0 4.556 2.083 2.083 0 0 0 1.818-1.014v.943h.436V32.32z"></path></g><g><path d="M120.73 32.319v.78c.326-.55.921-.883 1.56-.874a1.857 1.857 0 0 1 1.998 1.958v2.56h-.437v-2.544a1.42 1.42 0 0 0-1.56-1.56 1.56 1.56 0 0 0-1.56 1.615v2.465h-.438v-4.4z"></path><path fill="none" stroke="#000" stroke-miterlimit="20" stroke-width=".3" d="M120.73 32.319v.78c.326-.55.921-.883 1.56-.874a1.857 1.857 0 0 1 1.998 1.958v2.56h-.437v0-2.544a1.42 1.42 0 0 0-1.56-1.56 1.56 1.56 0 0 0-1.56 1.615v2.465h-.438v0-4.4 0z"></path></g><g><path d="M128.5 33.123c-.38-.333-.876-.5-1.38-.468-.695 0-1.358.257-1.342.819.016.562.78.71 1.35.78.78.133 1.88.265 1.833 1.303-.047 1.038-1.045 1.233-1.826 1.233a2.27 2.27 0 0 1-1.935-.89l.32-.28c.384.505.988.796 1.623.78.538 0 1.358-.14 1.389-.843.03-.702-.718-.78-1.451-.882-.859-.14-1.709-.304-1.725-1.193-.016-.89.866-1.248 1.764-1.233a2.34 2.34 0 0 1 1.653.593z"></path><path fill="none" stroke="#000" stroke-miterlimit="20" stroke-width=".3" d="M128.5 33.123c-.38-.333-.876-.5-1.38-.468-.695 0-1.358.257-1.342.819.016.562.78.71 1.35.78.78.133 1.88.265 1.833 1.303-.047 1.038-1.045 1.233-1.826 1.233a2.27 2.27 0 0 1-1.935-.89l.32-.28c.384.505.988.796 1.623.78.538 0 1.358-.14 1.389-.843.03-.702-.718-.78-1.451-.882-.859-.14-1.709-.304-1.725-1.193-.016-.89.866-1.248 1.764-1.233a2.34 2.34 0 0 1 1.653.593z"></path></g><g><path d="M130.397 36.75v-4.01h-.913v-.39h.913v-.39c0-.882.343-1.521 1.326-1.521.319.004.628.11.881.304l-.218.328a1.178 1.178 0 0 0-.679-.227c-.562 0-.881.344-.881 1.116v.39h1.474v.39h-1.459v4.01z"></path><path fill="none" stroke="#000" stroke-miterlimit="20" stroke-width=".3" d="M130.397 36.75v0-4.01 0h-.913v0-.39 0h.913v0-.39c0-.882.343-1.521 1.326-1.521.319.004.628.11.881.304l-.218.328a1.178 1.178 0 0 0-.679-.227c-.562 0-.881.344-.881 1.116v.39h1.474v.39h-1.459v4.01z"></path></g><g><path d="M135.943 36.224a1.826 1.826 0 0 1-2.769-1.682 1.826 1.826 0 1 1 3.643 0 1.826 1.826 0 0 1-.874 1.682zm-3.198-1.682a2.255 2.255 0 1 0 4.502 0 2.255 2.255 0 1 0-4.502 0z"></path><path fill="none" stroke="#000" stroke-miterlimit="20" stroke-width=".3" d="M135.943 36.224a1.826 1.826 0 0 1-2.769-1.682 1.826 1.826 0 1 1 3.643 0 1.826 1.826 0 0 1-.874 1.682zm-3.198-1.682a2.255 2.255 0 1 0 4.502 0 2.255 2.255 0 1 0-4.502 0z"></path></g><g><path d="M138.674 32.319v.78a1.56 1.56 0 0 1 1.475-.835c.335-.007.666.082.952.258l-.195.358a1.475 1.475 0 0 0-2.224 1.28v2.582h-.436v-4.423z"></path><path fill="none" stroke="#000" stroke-miterlimit="20" stroke-width=".3" d="M138.674 32.319v.78a1.56 1.56 0 0 1 1.475-.835c.335-.007.666.082.952.258l-.195.358a1.475 1.475 0 0 0-2.224 1.28v2.582h-.436v0-4.423 0z"></path></g><g><path d="M148.349 36.75v-2.652a1.373 1.373 0 0 0-1.42-1.46 1.404 1.404 0 0 0-1.428 1.483v2.63h-.437v-2.63a1.428 1.428 0 1 0-2.847 0v2.63h-.437v-4.432h.413v.733a1.56 1.56 0 0 1 1.443-.827 1.638 1.638 0 0 1 1.647 1.1 1.7 1.7 0 0 1 1.638-1.1 1.787 1.787 0 0 1 1.857 1.872v2.653z"></path><path fill="none" stroke="#000" stroke-miterlimit="20" stroke-width=".3" d="M148.349 36.75v0-2.652a1.373 1.373 0 0 0-1.42-1.46 1.404 1.404 0 0 0-1.428 1.483v2.63h-.437v0-2.63a1.428 1.428 0 1 0-2.847 0v2.63h-.437v0-4.432 0h.413v.733a1.56 1.56 0 0 1 1.443-.827 1.638 1.638 0 0 1 1.647 1.1 1.7 1.7 0 0 1 1.638-1.1 1.787 1.787 0 0 1 1.857 1.872v2.653z"></path></g><g><path d="M150.245 34.535a1.771 1.771 0 0 1 1.81-1.848 1.857 1.857 0 1 1 0 3.705 1.779 1.779 0 0 1-1.81-1.857zm3.604-2.215v.967a2.013 2.013 0 0 0-1.818-1.022 2.278 2.278 0 1 0 0 4.556 2.075 2.075 0 0 0 1.818-1.014v.943h.437V32.32z"></path><path fill="none" stroke="#000" stroke-miterlimit="20" stroke-width=".3" d="M150.245 34.535a1.771 1.771 0 0 1 1.81-1.848 1.857 1.857 0 1 1 0 3.705 1.779 1.779 0 0 1-1.81-1.857zm3.604-2.215v.967a2.013 2.013 0 0 0-1.818-1.022 2.278 2.278 0 1 0 0 4.556 2.075 2.075 0 0 0 1.818-1.014v.943h.437V32.32z"></path></g><g><path d="M156.307 30.977v1.342h1.505v.366h-1.505v2.7c0 .6.124 1.022.78 1.022.239-.009.473-.07.686-.18l.149.36c-.257.14-.543.218-.835.226-.936 0-1.24-.554-1.24-1.428v-2.7h-.921v-.366h.944v-1.295z"></path><path fill="none" stroke="#000" stroke-miterlimit="20" stroke-width=".3" d="M156.307 30.977v1.342h1.505v.366h-1.505v2.7c0 .6.124 1.022.78 1.022.239-.009.473-.07.686-.18l.149.36c-.257.14-.543.218-.835.226-.936 0-1.24-.554-1.24-1.428v-2.7 0h-.921v0-.366 0h.944v0-1.295 0z"></path></g><g><path d="M159.264 32.303v4.447h-.437v-4.447zm.148-1.428a.359.359 0 0 1-.71 0 .359.359 0 0 1 .71 0z"></path><path fill="none" stroke="#000" stroke-miterlimit="20" stroke-width=".3" d="M159.264 32.303v4.447h-.437v-4.447zm.148-1.428a.359.359 0 0 1-.71 0 .359.359 0 0 1 .71 0z"></path></g><g><path d="M164.467 34.542a1.826 1.826 0 1 1-3.65 0 1.826 1.826 0 0 1 3.65 0zm-4.08 0a2.255 2.255 0 1 0 4.51 0 2.255 2.255 0 0 0-4.51 0z"></path><path fill="none" stroke="#000" stroke-miterlimit="20" stroke-width=".3" d="M164.467 34.542a1.826 1.826 0 1 1-3.65 0 1.826 1.826 0 0 1 3.65 0zm-4.08 0a2.255 2.255 0 1 0 4.51 0 2.255 2.255 0 0 0-4.51 0z"></path></g><g><path d="M166.363 32.319v.78c.327-.55.922-.882 1.56-.874a1.857 1.857 0 0 1 2.006 1.959v2.558h-.437V34.2a1.42 1.42 0 0 0-1.56-1.56 1.56 1.56 0 0 0-1.56 1.615v2.465h-.437v-4.4z"></path><path fill="none" stroke="#000" stroke-miterlimit="20" stroke-width=".3" d="M166.363 32.319v.78c.327-.55.922-.882 1.56-.874a1.857 1.857 0 0 1 2.006 1.959v2.558h-.437v0V34.2a1.42 1.42 0 0 0-1.56-1.56 1.56 1.56 0 0 0-1.56 1.615v2.465h-.437v0-4.4 0z"></path></g></g><g><g><path fill="#d11a2e" d="M33.557 55v-3.231h26.29v3.23z"></path></g><g><path fill="#ec6623" d="M59.846 55v-3.231h26.29v3.23z"></path></g><g><path fill="#6eb639" d="M86.142 55v-3.231h26.29v3.23z"></path></g><g><path fill="#5bc1d4" d="M112.432 55v-3.231h26.289v3.23z"></path></g></g></g></g></g></svg>