<svg width="20" height="20" viewBox="0 0 20 20" fill="none" xmlns="http://www.w3.org/2000/svg">
<path d="M16.203 1.83936H13.9902V0.553191C13.9902 0.406476 13.9319 0.26577 13.8282 0.162026C13.7244 0.0582826 13.5837 0 13.437 0C13.2903 0 13.1496 0.0582826 13.0458 0.162026C12.9421 0.26577 12.8838 0.406476 12.8838 0.553191V1.83936H6.61422V0.553191C6.61422 0.406476 6.55593 0.26577 6.45219 0.162026C6.34845 0.0582826 6.20774 0 6.06102 0C5.91431 0 5.7736 0.0582826 5.66986 0.162026C5.56611 0.26577 5.50783 0.406476 5.50783 0.553191V1.83936H3.29507C1.97322 1.83936 0.897949 2.91269 0.897949 4.23191V17.1074C0.897949 18.4267 1.97322 19.5 3.29507 19.5H16.203C17.5248 19.5 18.6001 18.4267 18.6001 17.1074V4.23191C18.6001 2.91269 17.5248 1.83936 16.203 1.83936ZM3.29507 2.94574H5.50783V4.23191C5.50783 4.37863 5.56611 4.51934 5.66986 4.62308C5.7736 4.72682 5.91431 4.78511 6.06102 4.78511C6.20774 4.78511 6.34845 4.72682 6.45219 4.62308C6.55593 4.51934 6.61422 4.37863 6.61422 4.23191V2.94574H12.8838V4.23191C12.8838 4.37863 12.9421 4.51934 13.0458 4.62308C13.1496 4.72682 13.2903 4.78511 13.437 4.78511C13.5837 4.78511 13.7244 4.72682 13.8282 4.62308C13.9319 4.51934 13.9902 4.37863 13.9902 4.23191V2.94574H16.203C16.9146 2.94574 17.4937 3.52272 17.4937 4.23191V7.35745H2.00433V4.23191C2.00433 3.52272 2.58339 2.94574 3.29507 2.94574ZM16.203 18.3936H3.29507C2.58339 18.3936 2.00433 17.8166 2.00433 17.1074V8.46383H17.4937V17.1074C17.4937 17.8166 16.9146 18.3936 16.203 18.3936Z" fill="black"/>
</svg>
