<svg width="32" height="32" viewBox="0 0 32 32" fill="none" xmlns="http://www.w3.org/2000/svg">
<rect width="31.58" height="31.58" rx="15.79" fill="#D9D9D9"/>
<path d="M22.6482 9.61768H18.5333C17.8057 9.61768 17.108 9.9067 16.5935 10.4212C16.0791 10.9356 15.79 11.6334 15.79 12.3609V21.9624C15.79 21.4167 16.0068 20.8934 16.3927 20.5075C16.7785 20.1217 17.3018 19.9049 17.8475 19.9049H22.6482V9.61768Z" stroke="#3D3D3D" stroke-width="1.37162" stroke-linecap="round" stroke-linejoin="round"/>
<path d="M8.93262 9.61768H13.0475C13.7751 9.61768 14.4728 9.9067 14.9873 10.4212C15.5018 10.9356 15.7908 11.6334 15.7908 12.3609V21.9624C15.7908 21.4167 15.574 20.8934 15.1882 20.5075C14.8023 20.1217 14.279 19.9049 13.7333 19.9049H8.93262V9.61768Z" stroke="#3D3D3D" stroke-width="1.37162" stroke-linecap="round" stroke-linejoin="round"/>
</svg>
