<svg width="32" height="32" viewBox="0 0 32 32" fill="none" xmlns="http://www.w3.org/2000/svg">
<rect width="31.58" height="31.58" rx="15.79" fill="#D9D9D9"/>
<path d="M15.7901 19.1242C17.6314 19.1242 19.1241 17.6315 19.1241 15.7902C19.1241 13.9489 17.6314 12.4562 15.7901 12.4562C13.9487 12.4562 12.4561 13.9489 12.4561 15.7902C12.4561 17.6315 13.9487 19.1242 15.7901 19.1242Z" stroke="#3D3D3D" stroke-width="1.66678" stroke-linecap="round" stroke-linejoin="round"/>
<path d="M19.1236 12.4564V16.6234C19.1236 17.2865 19.387 17.9224 19.8559 18.3913C20.3248 18.8602 20.9607 19.1236 21.6238 19.1236C22.2869 19.1236 22.9228 18.8602 23.3917 18.3913C23.8606 17.9224 24.124 17.2865 24.124 16.6234V15.79C24.1239 13.909 23.4875 12.0834 22.3183 10.61C21.149 9.13664 19.5158 8.1021 17.684 7.67462C15.8523 7.24715 13.9298 7.45189 12.2292 8.25556C10.5286 9.05922 9.14986 10.4145 8.31718 12.1011C7.4845 13.7878 7.24685 15.7064 7.64288 17.5452C8.03891 19.384 9.04533 21.0348 10.4985 22.229C11.9516 23.4233 13.7661 24.0909 15.6467 24.1233C17.5274 24.1556 19.3637 23.5508 20.8571 22.4072" stroke="#3D3D3D" stroke-width="1.66678" stroke-linecap="round" stroke-linejoin="round"/>
</svg>
