<svg width="21" height="21" viewBox="0 0 21 21" fill="none" xmlns="http://www.w3.org/2000/svg">
<path d="M10.2856 20.5714C10.3994 20.5714 10.5106 20.5376 10.6052 20.4742C10.688 20.4187 12.6595 19.09 14.6584 16.9712C17.3874 14.0787 18.7711 11.2356 18.7711 8.52069C18.7711 3.8223 14.9644 0 10.2856 0C5.60645 0 1.79971 3.8223 1.79971 8.52069C1.79971 11.2356 3.18339 14.0786 5.91232 16.9712C7.91148 19.09 9.88312 20.4187 9.96605 20.4742C10.0605 20.5376 10.1718 20.5715 10.2856 20.5714ZM10.2856 1.15689C14.3292 1.15689 17.619 4.4604 17.619 8.52069C17.619 13.6248 11.736 18.228 10.2856 19.2851C8.83488 18.2281 2.95184 13.6248 2.95184 8.52069C2.95184 4.4604 6.24159 1.15689 10.2856 1.15689Z" fill="black"/>
<path d="M10.2858 11.7466C12.0572 11.7466 13.4982 10.2994 13.4982 8.52078C13.4982 6.74212 12.0572 5.29492 10.2858 5.29492C8.51424 5.29492 7.07321 6.74212 7.07321 8.52078C7.07321 10.2994 8.51424 11.7466 10.2858 11.7466ZM10.2858 6.45168C11.4218 6.45168 12.3461 7.37984 12.3461 8.52065C12.3461 9.66147 11.4218 10.5896 10.2858 10.5896C9.14964 10.5896 8.22534 9.66147 8.22534 8.52065C8.22534 7.37984 9.14964 6.45168 10.2858 6.45168Z" fill="black"/>
</svg>
