<svg width="22" height="22" viewBox="0 0 22 22" fill="none" xmlns="http://www.w3.org/2000/svg">
<path d="M21.9341 20.4188L14.7924 13.2772C15.9008 11.8444 16.5004 10.0925 16.5004 8.25032C16.5004 6.04483 15.6395 3.97676 14.0831 2.41754C12.5261 0.858035 10.4527 0 8.25004 0C6.04736 0 3.97366 0.860851 2.41725 2.41725C0.858035 3.97366 0 6.04454 0 8.25004C0 10.4555 0.860851 12.5261 2.41725 14.0828C3.97366 15.642 6.04454 16.5001 8.25004 16.5001C10.0925 16.5001 11.8416 15.9005 13.2743 14.795L20.416 21.9341C20.4368 21.9549 20.4619 21.9716 20.4892 21.9831C20.5165 21.9944 20.5458 22.0003 20.5754 22.0003C20.605 22.0003 20.6342 21.9944 20.6618 21.9831C20.6892 21.9718 20.7139 21.9552 20.7351 21.9341L21.9341 20.7379C21.9549 20.717 21.9716 20.692 21.9831 20.6647C21.9944 20.6373 22.0003 20.6081 22.0003 20.5785C22.0003 20.5489 21.9944 20.5196 21.9831 20.492C21.9718 20.4647 21.9552 20.4397 21.9341 20.4188ZM12.6061 12.6061C11.44 13.7694 9.89458 14.41 8.25004 14.41C6.60549 14.41 5.06007 13.7694 3.89396 12.6061C2.73068 11.44 2.09004 9.89458 2.09004 8.25004C2.09004 6.60549 2.73068 5.05725 3.89396 3.89396C5.06007 2.73068 6.60549 2.09004 8.25004 2.09004C9.89458 2.09004 11.4428 2.72814 12.6061 3.89396C13.7694 5.06007 14.41 6.60549 14.41 8.25004C14.41 9.89458 13.7694 11.4428 12.6061 12.6061Z" fill="#B9A981"/>
</svg>
