<svg width="32" height="32" viewBox="0 0 32 32" fill="none" xmlns="http://www.w3.org/2000/svg">
<rect width="31.58" height="31.58" rx="15.79" fill="#D9D9D9"/>
<path d="M9.61816 19.9048V15.7899C9.61816 14.1529 10.2685 12.5829 11.426 11.4254C12.5835 10.2679 14.1535 9.61755 15.7905 9.61755C17.4275 9.61755 18.9975 10.2679 20.155 11.4254C21.3126 12.5829 21.9629 14.1529 21.9629 15.7899V19.9048" stroke="#3D3D3D" stroke-width="1.37162" stroke-linecap="round" stroke-linejoin="round"/>
<path d="M21.9629 20.5905C21.9629 20.9542 21.8183 21.3031 21.5611 21.5603C21.3039 21.8176 20.955 21.9621 20.5912 21.9621H19.9054C19.5416 21.9621 19.1927 21.8176 18.9355 21.5603C18.6783 21.3031 18.5338 20.9542 18.5338 20.5905V18.533C18.5338 18.1692 18.6783 17.8204 18.9355 17.5631C19.1927 17.3059 19.5416 17.1614 19.9054 17.1614H21.9629V20.5905ZM9.61816 20.5905C9.61816 20.9542 9.76267 21.3031 10.0199 21.5603C10.2771 21.8176 10.626 21.9621 10.9898 21.9621H11.6756C12.0394 21.9621 12.3883 21.8176 12.6455 21.5603C12.9027 21.3031 13.0472 20.9542 13.0472 20.5905V18.533C13.0472 18.1692 12.9027 17.8204 12.6455 17.5631C12.3883 17.3059 12.0394 17.1614 11.6756 17.1614H9.61816V20.5905Z" stroke="#3D3D3D" stroke-width="1.37162" stroke-linecap="round" stroke-linejoin="round"/>
</svg>
