<svg width="20" height="20" viewBox="0 0 20 20" fill="none" xmlns="http://www.w3.org/2000/svg">
<path fill-rule="evenodd" clip-rule="evenodd" d="M9.99993 0C15.5141 0 20 4.48587 20 9.99993C20 15.5141 15.5141 20 9.99993 20C4.48587 20 0 15.5141 0 9.99993C0 4.48587 4.48587 0 9.99993 0ZM9.99993 1.17642C5.13415 1.17642 1.17642 5.13415 1.17642 9.99993C1.17642 14.8658 5.13415 18.8234 9.99993 18.8234C14.8658 18.8234 18.8234 14.8658 18.8234 9.99993C18.8234 5.13415 14.8658 1.17642 9.99993 1.17642ZM10.5882 4.70582V9.41179H15.294V10.5882H9.41179V4.70582H10.5882Z" fill="black"/>
</svg>
